<?xml version="1.0" encoding="utf-8"?>
<svg xmlns="http://www.w3.org/2000/svg" width="439.9" height="137.0" viewBox="0 0 439.9 137.0">
  <path d="m42.9,76.6c0,-15.9 8.2,-22.5 16.4,-22.5 11.4,0 15.4,7.5 15.4,23.6 0,14.1 -5.7,23.4 -16.4,23.4 -11.1,0 -15.4,-7 -15.4,-24.5m-42.9,4.5c0,40.7 22.3,55.9 56.1,55.9 34.1,0 61.6,-24.1 61.6,-61.8 0,-35.9 -18.9,-56.6 -55.9,-56.6 -34.8,0.1 -61.8,24.1 -61.8,62.5" fill="#F6C617" fill-opacity="1.000" />
  <path d="m162.9,36.4h-0.2c0.8,-5 1.1,-10 1.1,-15h-38.2v112.9h41.4v-55c0,-12.5 8.6,-25.7 17.7,-25.7 4.8,0 6.4,3.6 6.4,9.3v71.3h41.3v-80c0,-19.3 -8.4,-35.7 -33.4,-35.7 -17.3,0.2 -29.1,7.9 -36.1,17.9" fill="#F6C617" fill-opacity="1.000" />
  <path d="m296.4,48.4c7.3,0 12,4.8 11.6,15.7h-25.4c0.4,-9.3 5.9,-15.7 13.8,-15.7m-55.4,30.9c0,40 21.6,57.7 59.5,57.7 13.9,0 30,-2.5 43.6,-7.9l-3.6,-30.9c-10.5,4.6 -21.9,7 -33.4,7 -16.1,0 -23.6,-6.4 -24.3,-14.3h64.1c0.9,-5.9 1.3,-11.8 1.4,-17.7 0,-31.3 -15.9,-54.7 -50.9,-54.7 -36.6,-0.1 -56.4,25.8 -56.4,60.8" fill="#F6C617" fill-opacity="1.000" />
  <path d="m368.9,39c0,-17.7 14.3,-32 32,-32s32,14.3 32,32 -14.3,32 -32,32c-17.7,-0.1 -32,-14.4 -32,-32m-7,0c0,21.5 17.4,39 39,39 21.5,0 39,-17.4 39,-39s-17.4,-39 -39,-39c-21.5,0 -39,17.4 -39,39" fill="#F6C617" fill-opacity="1.000" />
  <path d="m381.3,30.2v8l10.7,-3.9v24l21.5,-7.7v-32z" fill="#F6C617" fill-opacity="1.000" />
</svg>